<svg id="visual" viewBox="0 0 1920 1080" width="1920" height="1080" xmlns="http://www.w3.org/2000/svg" xmlns:xlink="http://www.w3.org/1999/xlink" version="1.1"><path d="M0 131L29.2 132.7C58.3 134.3 116.7 137.7 174.8 143C233 148.3 291 155.7 349.2 157.5C407.3 159.3 465.7 155.7 523.8 157.5C582 159.3 640 166.7 698.2 172.2C756.3 177.7 814.7 181.3 872.8 168.7C931 156 989 127 1047.2 114.3C1105.3 101.7 1163.7 105.3 1221.8 114.3C1280 123.3 1338 137.7 1396.2 146.7C1454.3 155.7 1512.7 159.3 1570.8 164.8C1629 170.3 1687 177.7 1745.2 168.7C1803.3 159.7 1861.7 134.3 1890.8 121.7L1920 109L1920 0L1890.8 0C1861.7 0 1803.3 0 1745.2 0C1687 0 1629 0 1570.8 0C1512.7 0 1454.3 0 1396.2 0C1338 0 1280 0 1221.8 0C1163.7 0 1105.3 0 1047.2 0C989 0 931 0 872.8 0C814.7 0 756.3 0 698.2 0C640 0 582 0 523.8 0C465.7 0 407.3 0 349.2 0C291 0 233 0 174.8 0C116.7 0 58.3 0 29.2 0L0 0Z" fill="#eed0e1"></path><path d="M0 293L29.2 287.5C58.3 282 116.7 271 174.8 294.3C233 317.7 291 375.3 349.2 398.8C407.3 422.3 465.7 411.7 523.8 400.8C582 390 640 379 698.2 380.7C756.3 382.3 814.7 396.7 872.8 385.8C931 375 989 339 1047.2 335.5C1105.3 332 1163.7 361 1221.8 364.7C1280 368.3 1338 346.7 1396.2 330.5C1454.3 314.3 1512.7 303.7 1570.8 303.7C1629 303.7 1687 314.3 1745.2 316C1803.3 317.7 1861.7 310.3 1890.8 306.7L1920 303L1920 107L1890.8 119.7C1861.7 132.3 1803.3 157.7 1745.2 166.7C1687 175.7 1629 168.3 1570.8 162.8C1512.7 157.3 1454.3 153.7 1396.2 144.7C1338 135.7 1280 121.3 1221.8 112.3C1163.7 103.3 1105.3 99.7 1047.2 112.3C989 125 931 154 872.8 166.7C814.7 179.3 756.3 175.7 698.2 170.2C640 164.7 582 157.3 523.8 155.5C465.7 153.7 407.3 157.3 349.2 155.5C291 153.7 233 146.3 174.8 141C116.7 135.7 58.3 132.3 29.2 130.7L0 129Z" fill="#e9c5da"></path><path d="M0 541L29.2 553.7C58.3 566.3 116.7 591.7 174.8 633C233 674.3 291 731.7 349.2 753.2C407.3 774.7 465.7 760.3 523.8 733.3C582 706.3 640 666.7 698.2 654.2C756.3 641.7 814.7 656.3 872.8 642C931 627.7 989 584.3 1047.2 577C1105.3 569.7 1163.7 598.3 1221.8 612.7C1280 627 1338 627 1396.2 628.8C1454.3 630.7 1512.7 634.3 1570.8 656C1629 677.7 1687 717.3 1745.2 704.8C1803.3 692.3 1861.7 627.7 1890.8 595.3L1920 563L1920 301L1890.8 304.7C1861.7 308.3 1803.3 315.7 1745.2 314C1687 312.3 1629 301.7 1570.8 301.7C1512.7 301.7 1454.3 312.3 1396.2 328.5C1338 344.7 1280 366.3 1221.8 362.7C1163.7 359 1105.3 330 1047.2 333.5C989 337 931 373 872.8 383.8C814.7 394.7 756.3 380.3 698.2 378.7C640 377 582 388 523.8 398.8C465.7 409.7 407.3 420.3 349.2 396.8C291 373.3 233 315.7 174.8 292.3C116.7 269 58.3 280 29.2 285.5L0 291Z" fill="#e4bad4"></path><path d="M0 876L29.2 885C58.3 894 116.7 912 174.8 924.5C233 937 291 944 349.2 947.5C407.3 951 465.7 951 523.8 956.5C582 962 640 973 698.2 967.7C756.3 962.3 814.7 940.7 872.8 919C931 897.3 989 875.7 1047.2 881C1105.3 886.3 1163.7 918.7 1221.8 936.7C1280 954.7 1338 958.3 1396.2 963.8C1454.3 969.3 1512.7 976.7 1570.8 969.5C1629 962.3 1687 940.7 1745.2 944.2C1803.3 947.7 1861.7 976.3 1890.8 990.7L1920 1005L1920 561L1890.8 593.3C1861.7 625.7 1803.3 690.3 1745.2 702.8C1687 715.3 1629 675.7 1570.8 654C1512.7 632.3 1454.3 628.7 1396.2 626.8C1338 625 1280 625 1221.8 610.7C1163.7 596.3 1105.3 567.7 1047.2 575C989 582.3 931 625.7 872.8 640C814.7 654.3 756.3 639.7 698.2 652.2C640 664.7 582 704.3 523.8 731.3C465.7 758.3 407.3 772.7 349.2 751.2C291 729.7 233 672.3 174.8 631C116.7 589.7 58.3 564.3 29.2 551.7L0 539Z" fill="#e1b0ce"></path><path d="M0 1081L29.2 1081C58.3 1081 116.7 1081 174.8 1081C233 1081 291 1081 349.2 1081C407.3 1081 465.7 1081 523.8 1081C582 1081 640 1081 698.2 1081C756.3 1081 814.7 1081 872.8 1081C931 1081 989 1081 1047.2 1081C1105.3 1081 1163.7 1081 1221.8 1081C1280 1081 1338 1081 1396.2 1081C1454.3 1081 1512.7 1081 1570.8 1081C1629 1081 1687 1081 1745.2 1081C1803.3 1081 1861.7 1081 1890.8 1081L1920 1081L1920 1003L1890.8 988.7C1861.7 974.3 1803.3 945.7 1745.2 942.2C1687 938.7 1629 960.3 1570.8 967.5C1512.7 974.7 1454.3 967.3 1396.2 961.8C1338 956.3 1280 952.7 1221.8 934.7C1163.7 916.7 1105.3 884.3 1047.2 879C989 873.7 931 895.3 872.8 917C814.7 938.7 756.3 960.3 698.2 965.7C640 971 582 960 523.8 954.5C465.7 949 407.3 949 349.2 945.5C291 942 233 935 174.8 922.5C116.7 910 58.3 892 29.2 883L0 874Z" fill="#dda6c8"></path></svg>